HIERARCHY
ROOT Hips
{
	OFFSET 0.000000 0.000000 0.000000 
	CHANNELS 6 Xposition Yposition Zposition Zrotation Yrotation Xrotation
	JOINT LeftUpLeg
	{
		OFFSET 1.363060 -1.794630 0.839290 
		CHANNELS 3 Zrotation Yrotation Xrotation
		JOINT LeftLeg
		{
			OFFSET 2.448110 -6.726130 0.000000 
			CHANNELS 3 Zrotation Yrotation Xrotation
			JOINT LeftFoot
			{
				OFFSET 2.562200 -7.039590 0.000000 
				CHANNELS 3 Zrotation Yrotation Xrotation
				JOINT LeftToeBase
				{
					OFFSET 0.157640 -0.433110 2.322550 
					CHANNELS 3 Zrotation Yrotation Xrotation
					End Site
					{
						OFFSET 0.000000 0.000000 0.000000 
					}
				}
			}
		}
	}
	JOINT RightUpLeg
	{
		OFFSET -1.305520 -1.794630 0.839290 
		CHANNELS 3 Zrotation Yrotation Xrotation
		JOINT RightLeg
		{
			OFFSET -2.542530 -6.985550 0.000000 
			CHANNELS 3 Zrotation Yrotation Xrotation
			JOINT RightFoot
			{
				OFFSET -2.568260 -7.056230 0.000000 
				CHANNELS 3 Zrotation Yrotation Xrotation
				JOINT RightToeBase
				{
					OFFSET -0.164730 -0.452590 2.363150 
					CHANNELS 3 Zrotation Yrotation Xrotation
					End Site
					{
						OFFSET 0.000000 0.000000 0.000000 
					}
				}
			}
		}
	}
	JOINT Spine
	{
		OFFSET 0.028270 2.035590 -0.193380 
		CHANNELS 3 Zrotation Yrotation Xrotation
		JOINT Spine1
		{
			OFFSET 0.056720 2.048850 -0.042750 
			CHANNELS 3 Zrotation Yrotation Xrotation
			JOINT Neck1
			{
				OFFSET -0.054170 1.746240 0.172020 
				CHANNELS 3 Zrotation Yrotation Xrotation
				JOINT Head
				{
					OFFSET 0.104070 1.761360 -0.123970 
					CHANNELS 3 Zrotation Yrotation Xrotation
					End Site
					{
						OFFSET 0.000000 0.000000 0.000000 
					}
				}
			}
			JOINT LeftArm
			{
				OFFSET 3.362410 1.200890 -0.311210 
				CHANNELS 3 Zrotation Yrotation Xrotation
				JOINT LeftForeArm
				{
					OFFSET 4.983000 -0.000000 -0.000000 
					CHANNELS 3 Zrotation Yrotation Xrotation
					JOINT LeftHand
					{
						OFFSET 3.483560 -0.000000 -0.000000 
						CHANNELS 3 Zrotation Yrotation Xrotation
						JOINT LeftHandIndex1
						{
							OFFSET 0.715260 -0.000000 -0.000000 
							CHANNELS 3 Zrotation Yrotation Xrotation
							End Site
							{
								OFFSET 0.000000 0.000000 0.000000 
							}
						}
					}
				}
			}
			JOINT RightArm
			{
				OFFSET -3.136600 1.374050 -0.404650 
				CHANNELS 3 Zrotation Yrotation Xrotation
				JOINT RightForeArm
				{
					OFFSET -5.241900 -0.000000 -0.000000 
					CHANNELS 3 Zrotation Yrotation Xrotation
					JOINT RightHand
					{
						OFFSET -3.444170 -0.000000 -0.000000 
						CHANNELS 3 Zrotation Yrotation Xrotation
						JOINT RightHandIndex1
						{
							OFFSET -0.622530 -0.000000 -0.000000 
							CHANNELS 3 Zrotation Yrotation Xrotation
							End Site
							{
								OFFSET 0.000000 0.000000 0.000000 
							}
						}
					}
				}
			}
		}
	}
}
MOTION
Frames: 12
Frame Time: 0.041667
-9.578303 17.550457 -33.803881 5.234076 3.928647 9.233569 -22.374398 -6.844095 6.325803 0.282297 7.939652 26.714407 3.236082 -6.084250 31.650055 1.127700 -6.745100 -18.962500 11.652699 10.857164 -40.331323 -1.248755 -10.898772 27.739098 1.132450 -11.042042 17.643203 -0.059300 -1.571300 4.322400 2.621409 -8.867972 -3.803474 12.184414 -3.969553 -3.764396 2.078112 4.284428 11.008153 3.340800 1.120400 6.675900 -81.506417 -2.025994 13.906029 18.547617 -31.704886 -7.736867 -1.367006 -4.120983 0.934863 -7.125000 0.000000 0.000000 73.782636 -18.373887 1.668325 -6.329167 11.692832 -0.959251 0.975816 -1.467587 25.747725 7.125000 0.000000 0.000000 
-9.605097 17.581838 -33.524165 5.222271 4.815202 3.589800 -22.443774 -5.417181 11.118984 0.644201 8.287855 27.875086 3.602187 -5.820668 35.920913 0.914000 -6.091700 -17.050700 12.945602 9.419832 -33.861429 -1.546232 -11.007503 28.939721 1.420738 -11.225075 16.688494 -0.116900 -2.204500 6.071200 2.309673 -8.080308 -3.132153 11.970791 -3.730925 -4.914003 2.097825 3.468778 11.032059 3.210600 0.745400 7.024300 -81.183634 -2.686926 14.943458 18.492840 -31.485759 -7.654343 -1.427458 -3.980692 0.831758 -7.125000 0.000000 0.000000 75.178415 -17.891348 -0.036179 -6.592536 11.888523 -1.018655 0.828272 -1.595904 25.772217 7.125000 0.000000 0.000000 
-9.621152 17.607276 -33.237569 5.227722 3.630614 3.313460 -22.788024 -4.816627 9.648278 1.285341 9.231048 30.617963 3.916805 -5.249407 39.195543 0.698400 -5.341900 -14.886400 13.401328 10.157055 -33.016510 -1.715112 -11.204663 29.833889 1.304006 -10.537527 16.277289 -0.099100 -2.030000 5.588700 2.232337 -7.354035 -3.031882 11.897945 -3.377772 -4.809246 2.154390 3.233439 11.049053 3.188100 0.648200 7.082700 -81.325441 -2.590284 15.134749 18.396813 -31.369193 -7.577499 -1.525884 -3.917575 0.319793 -7.125000 0.000000 0.000000 75.476632 -17.602932 0.200387 -6.780798 12.134870 -1.070541 0.887500 -1.481844 24.982106 7.125000 0.000000 0.000000 
-9.640022 17.640116 -32.928558 4.874154 4.120510 3.344601 -22.233435 -5.621091 8.352774 1.871505 10.084279 33.071206 4.286968 -4.900623 42.153493 0.756400 -5.554700 -15.497600 14.150435 9.760296 -32.385658 -1.858824 -11.343052 30.521301 1.403659 -10.357017 15.113901 -0.064500 -1.639200 4.509600 2.391017 -7.784912 -3.134897 12.377920 -3.513583 -5.054772 2.273930 3.417524 11.105768 3.290900 0.723300 6.964200 -82.014074 -1.491215 14.771267 18.441024 -31.469290 -7.612912 -1.518069 -3.977118 -0.673229 -7.125000 0.000000 0.000000 74.837949 -17.799978 1.755501 -7.000327 12.493439 -1.130437 1.121351 -1.153025 23.717582 7.125000 0.000000 0.000000 
-9.663688 17.672018 -32.641127 4.238240 3.504828 2.978183 -21.618139 -5.342924 6.739796 2.695933 11.063695 36.006687 4.822548 -4.381928 45.820231 0.254500 -3.246000 -8.964300 15.246573 10.121897 -31.192503 -1.954597 -11.382520 31.003505 1.465007 -10.055198 13.940028 -0.093100 -1.967800 5.416600 2.463494 -7.534072 -3.116100 12.532063 -3.348621 -5.273215 2.370635 3.396537 11.126483 3.346800 0.715300 6.838900 -82.293820 -0.891587 14.705269 18.335258 -31.375838 -7.547025 -1.409289 -4.099546 -1.126178 -7.125000 0.000000 0.000000 74.691330 -17.822539 2.978921 -7.221966 12.888088 -1.204608 1.140513 -1.232227 22.397917 7.125000 0.000000 0.000000 
-9.672132 17.733529 -32.345774 3.307079 3.971605 2.733397 -20.704064 -6.102413 5.328724 3.506135 11.974134 38.962204 4.828511 -3.835823 46.192121 0.369300 -3.903500 -10.805300 16.543914 9.656910 -30.009473 -2.014704 -11.360293 31.249158 1.655058 -10.199870 12.573945 -0.104700 -2.086400 5.744400 2.357748 -6.976394 -2.954084 11.330856 -3.170749 -4.892011 2.447488 2.643677 11.307399 3.283000 0.384700 7.103600 -81.802778 -1.831366 16.010872 17.767353 -30.659244 -7.151203 -1.351795 -4.071811 -1.257121 -7.125000 0.000000 0.000000 75.962827 -17.255633 2.472859 -7.541315 13.323186 -1.295375 1.207403 -1.213968 21.252352 7.125000 0.000000 0.000000 
-9.687458 17.773563 -32.072105 2.710957 2.349861 2.828457 -20.450185 -5.108647 3.023167 4.385702 12.818946 41.938231 4.715662 -3.122415 45.905330 0.197300 -2.860400 -7.890400 17.548884 10.464361 -29.011947 -1.995644 -11.273025 31.266429 1.555394 -9.605777 11.975061 -0.133100 -2.351100 6.477100 2.054361 -5.083656 -2.696233 9.868503 -2.349720 -4.193856 2.638282 1.440053 11.614806 3.166400 -0.130200 7.712700 -80.953039 -3.265300 18.510980 17.315547 -30.034567 -6.815791 -1.309623 -4.090118 -1.599919 -7.125000 0.000000 0.000000 77.978293 -15.954221 0.651466 -7.838288 13.558348 -1.359500 1.253748 -1.150784 20.455052 7.125000 0.000000 0.000000 
-9.697258 17.809635 -31.799270 2.338246 0.800083 2.673016 -20.222371 -4.085593 0.858923 5.167230 13.546407 44.891237 4.254237 -3.250424 43.375422 0.209900 -2.949500 -8.138200 18.530115 11.011397 -27.784098 -1.956733 -11.103570 31.165806 1.391967 -8.766348 11.420465 -0.161500 -2.589100 7.136900 2.712073 -6.340550 -3.099728 12.856931 -2.659881 -5.621993 2.725744 3.679061 11.542067 3.613500 0.806300 6.855700 -83.350269 0.346482 14.610113 17.597015 -30.541822 -7.066942 -1.245045 -4.148007 -1.524810 -7.125000 0.000000 0.000000 73.720206 -17.066618 7.065576 -7.721870 13.673857 -1.356729 1.347393 -1.170010 18.736231 7.125000 0.000000 0.000000 
-9.685686 17.855611 -31.513821 1.814369 1.047145 2.360852 -19.867756 -4.519619 -0.478238 5.882842 14.209317 47.713169 3.882639 -4.004387 40.915065 0.050000 -1.442800 -3.968200 19.349271 10.200966 -26.501555 -1.928814 -10.974994 31.072902 1.383536 -8.398261 10.385153 -0.196700 -2.856000 7.878100 2.571269 -5.842673 -3.030127 11.720209 -2.444589 -5.770646 2.759779 3.014497 11.434949 3.504100 0.545300 6.848100 -82.894130 0.229877 15.882198 17.182958 -30.019704 -6.776437 -1.167004 -4.211806 -1.748434 -7.125000 0.000000 0.000000 74.693355 -16.534097 5.839899 -7.748936 13.636978 -1.345132 1.352544 -1.408769 18.985534 7.125000 0.000000 0.000000 
-9.685373 17.896270 -31.225243 1.179156 1.444604 2.169156 -19.261587 -5.041482 -1.949854 6.573638 14.798868 50.286348 3.355453 -4.283570 37.233968 0.054400 -1.504800 -4.138900 20.302769 9.544431 -25.268662 -1.899660 -10.837098 30.907011 1.481151 -8.414004 9.218232 -0.198000 -2.865100 7.903500 2.435224 -5.415628 -2.919887 10.499678 -2.298578 -5.529101 2.745323 2.260569 11.451866 3.370100 0.230500 6.958200 -82.345769 -0.161070 17.044376 16.562050 -29.246868 -6.370699 -1.175224 -4.126976 -1.274903 -7.125000 0.000000 0.000000 75.782756 -15.744178 5.282297 -7.904861 13.772468 -1.384652 1.389612 -1.336091 18.567856 7.125000 0.000000 0.000000 
-9.674426 17.905966 -30.990774 0.819215 -2.002213 2.486899 -19.435348 -2.600717 -5.143669 7.334971 15.362982 52.751689 2.924770 -3.824408 34.230378 0.067200 -1.672100 -4.600400 20.995918 11.272785 -24.354767 -1.799695 -10.658026 30.631793 1.091414 -6.997323 9.217352 -0.207700 -2.934300 8.096000 2.448816 -4.023305 -2.937912 10.640639 -1.540542 -5.886865 2.731453 2.488290 11.445910 3.399000 0.322100 6.859900 -82.820106 0.617148 16.711555 16.171967 -28.766917 -6.124875 -1.283615 -3.982304 0.004278 -7.125000 0.000000 0.000000 75.262397 -15.457733 7.688366 -8.221799 14.224289 -1.497653 1.463048 -0.976194 16.908211 7.125000 0.000000 0.000000 
-9.695694 17.955383 -30.695733 0.598820 -1.241129 2.197042 -18.932973 -3.481265 -6.426226 7.867810 15.785079 54.610346 2.649996 -4.083591 31.729011 0.137700 -2.391500 -6.588900 21.554475 10.511683 -22.929866 -1.766036 -10.492670 30.386071 1.226032 -7.152683 7.858491 -0.266100 -3.318600 9.167000 2.695991 -4.903092 -3.010270 11.578567 -1.896114 -6.005261 2.709463 3.163193 11.578355 3.471600 0.603800 6.743300 -83.765646 1.970439 15.592909 16.010372 -28.652337 -6.042901 -1.390860 -3.903824 1.324006 -7.125000 0.000000 0.000000 73.998507 -15.173336 10.735919 -8.480600 14.697537 -1.611649 1.462513 -0.832763 15.311051 7.125000 0.000000 0.000000 
